UNKNOWN
version=1
nRows=38
nColumns=9
inDegrees=no
endheader
time	time	pelvis_tilt	hip_flexion_r	knee_angle_r	ankle_angle_r	hip_flexion_l	knee_angle_l	ankle_angle_l
      0.00000000	      4.37000000	      2.89269266	    -10.93651396	    -53.08153236	    -32.80489561	      7.87780868	    -19.21528133	      0.68212920
      1.00000000	      4.38000000	      2.51854697	    -10.35953196	    -53.91861873	    -31.94338757	      6.73324753	    -19.06559798	      1.54861174
      2.00000000	      4.39000000	      2.39790302	     -9.50462930	    -55.55990254	    -29.26126274	      5.24197064	    -18.96936459	      2.24626664
      3.00000000	      4.40000000	      2.04686231	     -8.28077697	    -56.80271853	    -26.73807462	      3.59215387	    -18.45368290	      2.63491351
      4.00000000	      4.41000000	      1.79746262	     -6.68978370	    -58.17646125	    -23.97000854	      1.92069697	    -17.73428830	      3.18052801
      5.00000000	      4.42000000	      1.46577609	     -5.07078517	    -58.99176432	    -22.20776656	      0.25061827	    -16.83521295	      3.58293083
      6.00000000	      4.43000000	      1.49152400	     -3.29939366	    -59.98358957	    -19.64729710	     -1.37670562	    -15.80606226	      4.02555034
      7.00000000	      4.44000000	      1.28458436	     -1.55000835	    -60.34300805	    -18.62296899	     -2.87968853	    -14.76625908	      4.27592541
      8.00000000	      4.45000000	      1.14209617	      0.16281890	    -60.43240637	    -17.42340893	     -4.33214728	    -13.66895142	      4.56716427
      9.00000000	      4.46000000	      1.03024249	      1.81465364	    -60.24010136	    -16.11388447	     -5.72632094	    -12.60956519	      4.77996581
     10.00000000	      4.47000000	      0.99881945	      3.42975371	    -59.89190214	    -13.77885888	     -7.10032757	    -11.65619656	      4.63085961
     11.00000000	      4.48000000	      0.92185251	      4.96608254	    -59.14573122	    -12.64457376	     -8.28212351	    -10.82774101	      4.85727090
     12.00000000	      4.49000000	      0.98225912	      6.21501583	    -58.17266026	     -9.27816416	     -9.52276174	    -10.07861220	      4.66446881
     13.00000000	      4.50000000	      0.88498569	      7.53968993	    -56.75619574	     -8.30821003	    -10.69135524	     -9.22158652	      5.15114365
     14.00000000	      4.51000000	      0.71088038	      8.70360365	    -54.86681166	     -6.60037195	    -11.72268888	     -8.60944602	      5.36179072
     15.00000000	      4.52000000	      0.72263006	      9.53331218	    -52.82103652	     -4.34824978	    -12.87122894	     -7.96409572	      5.40293863
     16.00000000	      4.53000000	      0.74549284	     10.37076075	    -50.60347557	     -3.16357043	    -14.02772047	     -7.37360286	      5.78849094
     17.00000000	      4.54000000	      1.12168012	     11.49544127	    -48.48327770	     -2.89713666	    -14.84584553	     -7.22099568	      5.91780775
     18.00000000	      4.55000000	      0.93557701	     11.61525410	    -45.21970399	     -1.33498176	    -16.04841647	     -6.59255016	      6.10532240
     19.00000000	      4.56000000	      1.39976572	     12.58757583	    -42.71464105	     -1.03440085	    -16.90368652	     -6.36598142	      6.29395565
     20.00000000	      4.57000000	      1.27021156	     12.94038963	    -39.09177337	     -0.06502213	    -17.87600262	     -5.97019681	      6.77868602
     21.00000000	      4.58000000	      1.90453099	     13.74110571	    -36.18508091	      0.27558075	    -18.74040569	     -5.58750363	      6.97333112
     22.00000000	      4.59000000	      1.73350527	     13.70477818	    -31.79107100	      0.95895661	    -19.68233760	     -5.35368518	      7.26695292
     23.00000000	      4.60000000	      1.72002404	     12.88711073	    -27.50144024	      1.51139001	    -21.39293439	     -4.67690678	      7.67246369
     24.00000000	      4.61000000	      2.41953991	     13.33650886	    -24.09442571	      2.15697775	    -22.36564738	     -4.29206205	      7.85515114
     25.00000000	      4.62000000	      2.54604320	     13.35916120	    -19.80728381	      2.58641478	    -23.29985612	     -4.21744961	      8.02092237
     26.00000000	      4.63000000	      3.07548638	     13.60617603	    -16.13949073	      3.05005962	    -24.22949547	     -3.76512756	      8.23747232
     27.00000000	      4.64000000	      2.56438400	     12.93411286	    -11.32490880	      2.32048287	    -25.58566458	     -3.01306321	      8.68340465
     28.00000000	      4.65000000	      3.11261616	     13.42932988	     -8.38354757	      3.12879048	    -26.25493010	     -2.94692635	      8.71288104
     29.00000000	      4.66000000	      2.55064522	     12.45116650	     -4.20342226	      2.32682273	    -27.76345892	     -2.72328780	      9.29820236
     30.00000000	      4.67000000	      2.30500498	     11.21542402	     -1.53087240	      3.79718607	    -29.72760947	     -2.85230561	      9.44911084
     31.00000000	      4.68000000	      2.55885756	     11.60406638	      0.21605514	      4.12174178	    -30.34036773	     -3.17391671	      9.51355495
     32.00000000	      4.69000000	      2.63853344	     11.88035511	      1.48148381	      4.29084084	    -30.89493858	     -3.82799831	      9.49511777
     33.00000000	      4.70000000	      2.15081435	     11.69125749	      1.81883893	      4.67646285	    -32.12788429	     -4.26216441	     10.48959852
     34.00000000	      4.71000000	      2.25845169	     11.90377174	      1.62031986	      4.62691364	    -32.75793588	     -4.93387939	     10.27743198
     35.00000000	      4.72000000	      2.13866937	     12.12014528	      0.64198562	      4.39049740	    -33.23829432	     -6.10146736	      9.91018156
     36.00000000	      4.73000000	      1.92703278	     12.38725302	     -1.10701230	      4.10320951	    -33.63044025	     -7.56880001	      9.46154827
     37.00000000	      4.74000000	      1.63505847	     12.57420368	     -3.13800347	      3.49331822	    -33.93659677	     -9.07253529	      9.00799845
